<svg width="422" height="665" viewBox="0 0 422 665" fill="none" xmlns="http://www.w3.org/2000/svg">
<g clip-path="url(#clip0_favicon)">
<path d="M306.275 171.407C322.885 159.561 347.054 146.946 365.282 137C395.895 168.553 423.813 211.174 422.982 256.766C422.763 267.568 420.788 278.263 417.132 288.43C411.336 304.358 401.855 318.736 393.765 333.536C383.581 352.165 373.926 371.383 362.63 389.359C355.656 379.491 347.911 370.239 341.303 360.094C355.472 329.412 367.022 300.151 374.476 267.1C369.7 279.169 357.773 316.336 349.907 323.256C336.821 347.415 320.675 369.907 306.249 393.282C288.676 421.756 272.451 451.499 256.161 480.737L163.79 480.744C138.172 481.062 112.551 481.084 86.9331 480.809C119.946 439.035 155.159 398.988 188.163 357.16C192.779 350.675 197.983 344.572 203.347 338.697C213.612 340.219 224.394 342.171 234.758 340.554C270.274 335.012 310.859 304.629 331.499 276.043C334.583 271.771 347.189 252.892 346.428 248.256C323.953 284.45 292.999 303.84 253.03 316.618C274.296 286.523 296.089 250.034 300.256 212.583C286.164 257.178 252.735 289.368 215.032 315.228C195.864 311.422 176.332 309.434 156.923 307.266C139.889 316.472 121.095 323.293 103.237 330.762L116.531 361.808C96.9126 361.797 77.2953 361.973 57.6812 362.335C70.513 352.337 84.3164 343.515 97.23 333.551C91.4711 336.229 85.3527 338.109 79.3355 340.119C68.2225 343.522 57.027 346.647 45.7594 349.493C37.0753 333.637 29.4235 316.548 22 300.047C65.1354 257.7 106.533 213.254 150.808 172.116C158.478 170.101 182.225 171.545 191.259 171.547C229.557 171.557 267.993 172.314 306.275 171.407Z" fill="#C1A867"/>
<path d="M150.78 172C172.509 174.296 194.965 171.373 216.813 173.762C220.393 174.154 223.057 178.219 226.486 178.668C229.288 179.035 231.1 176.489 234.314 177.289C235.176 179.081 235.3 179.362 235.04 181.319C233.359 183.783 231.207 185.011 228.692 186.53L229.147 187.743C230.771 188.028 232.073 188.136 233.709 187.886C233.274 191.027 232.362 193.974 231.442 197.001C232.457 197.563 233.435 198.009 234.513 198.437C236.192 207.052 234.66 217.745 234.197 226.571L235.894 228.817C234.04 231.522 233.265 232.479 233.014 235.741L233.66 236.436L235.635 234.275C236.504 236.709 235.692 240.298 234.56 242.576C230.603 250.54 217.841 250.932 210.876 255.937C198.839 259.435 187.046 263.976 175.164 267.986C167.604 270.539 158.327 272.694 151.354 276.378C136.329 284.317 91.6153 325.844 79.3229 339.646C68.2124 343.041 57.0193 346.16 45.7542 349C37.072 333.178 29.4219 316.125 22 299.658C65.126 257.402 106.514 213.051 150.78 172Z" fill="url(#paint0_linear_favicon)"/>
<path d="M215.634 195.052L217 195C215.902 196.882 206.009 200.151 203.538 201.214C199.323 203.029 195.176 204.765 191.52 207.557C184.698 212.766 178.336 222.793 170.012 225.314C160.511 228.19 150.024 221.363 141.93 217.101C137.434 214.699 132.648 212.697 128 210.584C157.236 207.436 186.71 200.404 215.634 195.052Z" fill="#0B1426"/>
<path d="M178.033 208L178.924 209.237C179.059 210.55 179.069 211.709 178.478 212.917C176.539 216.878 172.847 218.838 168.694 220.229C164.291 221.703 160.614 220.939 156.557 218.993L150 212.824C159.395 211.398 168.729 209.92 178.033 208Z" fill="#C1A867"/>
<path d="M59.4415 286C60.216 289.062 56.891 297.086 55.9256 300.367C58.2176 304.941 60.6421 309.46 63 314C57.371 312.736 51.9931 311.289 46.5607 309.346L37 305.328C45.1041 299.635 52.2627 292.781 59.4415 286Z" fill="#0B1426"/>
<path d="M188.5 357C205.185 360.318 222.246 361.23 239 364.014C226.133 384.163 212.701 403.989 199.975 424.212C188.818 441.942 178.271 460.105 167.493 478.069L164.061 480.744C138.376 481.062 112.687 481.084 87 480.809C120.101 438.981 155.408 398.882 188.5 357Z" fill="#F7DC77"/>
<path d="M350 323C336.922 347.237 320.787 369.803 306.369 393.254C288.807 421.82 272.593 451.66 256.313 480.993L164 481L167.42 478.32C229.084 427.549 288.248 373.689 350 323Z" fill="#1A6D70"/>
<path d="M86.742 534.12C113.209 531.663 146.378 533.98 173.419 534.216L321.327 534.021C323.019 548.159 331.049 561.292 342.109 569.996C353.328 578.826 366.697 583.79 380.978 583.383L381 598.338L80.5584 598.371C74.2259 599.592 65.8758 598.667 59.3596 598.62C45.9148 598.537 32.4691 598.524 19.0243 598.581L19 586.133C28.1776 586.12 36.7785 585.689 45.4861 582.428C61.361 576.44 74.06 564.073 80.5527 548.278C82.3607 543.823 82.9059 538.913 84.8887 534.593L86.742 534.12Z" fill="#1A6D70"/>
<path d="M86.7879 534C111.482 534.805 136.288 533.858 161 534.076C134.826 556.308 106.986 576.46 80.6 598.37C74.2632 599.594 65.9075 598.666 59.387 598.62C45.933 598.536 32.4782 598.523 19.0243 598.58L19 586.11C28.1838 586.097 36.7905 585.664 45.504 582.397C61.3897 576.398 74.0973 564.008 80.5944 548.184C82.4036 543.721 82.9492 538.802 84.9333 534.474L86.7879 534Z" fill="#F7DC77"/>
<path d="M39 115C90.1965 115.912 141.46 115.69 192.669 116.149C212.877 116.33 233.493 115.339 253.629 116.613C262.581 117.93 272.501 117.132 281.566 117.056C299.376 116.794 317.188 116.677 335 116.703C321.984 131.43 309.543 146.664 297.704 162.37L215.202 162.708C200.49 162.75 185.129 163.527 170.487 162.359C166.766 162.412 162.962 162.619 159.325 161.72C140.314 157.018 118.573 146.604 100.225 139.219C79.8959 131.036 59.0586 123.806 39 115Z" fill="#F7DC77"/>
<path d="M253.388 117C262.367 118.306 272.316 117.515 281.408 117.439C299.271 117.18 317.135 117.063 335 117.089C321.946 131.693 309.468 146.8 297.594 162.375L214.848 162.71C200.092 162.752 184.686 163.522 170 162.365C180.587 161.878 191.36 162.263 201.967 162.255C219.69 147.842 236.844 132.746 253.388 117Z" fill="#1A6D70"/>
<path d="M140.756 606.274L316.385 606.193L364.988 606.301C373.329 606.289 382.557 605.485 390.772 606.555C393.553 606.917 396.303 608.509 398.312 610.478C400.796 612.911 402.043 616.166 401.999 619.659C401.945 623.94 400.328 628.335 397.218 631.255C395.78 632.605 394.205 633.791 392.581 634.897C297.09 635.513 201.475 633.099 106 634.802C117.321 625.869 131.014 616.951 140.756 606.274Z" fill="#1A6D70"/>
<path d="M149.661 498.017C166.804 498.996 184.075 498.605 201.245 498.634L286.519 498.654C299.727 498.651 317.733 497.349 330.223 498.428C333.577 498.718 337.479 499.587 339.839 502.234C341.509 504.107 342.195 506.827 341.953 509.331C341.731 511.624 340.558 514.484 338.669 515.885C336.703 517.343 333.439 517.227 331.109 517.309C290.711 518.731 249.917 517.505 209.476 517.581L158.462 517.645C149.766 517.628 140.618 518.162 132 517.191C135.159 514.572 152.219 501.417 152.651 498.878L149.661 498.017Z" fill="#1A6D70"/>
<path d="M284 481C290.764 466.542 298.42 452.431 305.378 438.049C317.731 412.173 329.781 386.155 341.525 360C348.178 370.174 355.978 379.453 363 389.349C347.938 420.257 330.311 449.911 315.428 480.992L284 481Z" fill="#1A6D70"/>
<path d="M106.26 634.421L41.8662 634.567C32.0844 634.6 21.1024 635.653 11.4412 634.349C8.60412 633.966 6.21407 632.85 4.1263 630.881C1.48405 628.396 -0.0104525 624.924 5.50356e-05 621.293C0.0129874 617.496 1.53498 614.056 4.24512 611.402C6.813 608.886 10.1011 607.396 13.6445 606.921C26.9463 605.138 42.0407 606.493 55.5607 606.496L141 606.4C131.263 616.888 117.576 625.647 106.26 634.421Z" fill="#F7DC77"/>
<path d="M250.155 26.1039L251.29 25C255.565 28.1004 275.859 66.4201 279 73.4042C273.656 85.3005 268.24 97.1644 262.753 108.996L251.038 108.972L237.993 109C232.172 97.8828 226.304 86.2449 222 74.4595C231.974 58.7233 239.801 41.585 250.155 26.1039Z" fill="#F7DC77"/>
<path d="M250 26.104L251.141 25C255.439 28.1006 275.842 66.4221 279 73.4065C273.627 85.3034 268.182 97.1679 262.665 109L250.887 108.977C250.83 97.3947 252.463 31.8443 250 26.104Z" fill="#E79D45"/>
<path d="M150.022 498L153 498.838C152.57 501.308 135.578 514.111 132.432 516.66C118.807 516.542 105.181 516.566 91.557 516.73C84.9289 516.767 77.6098 517.484 71.0929 516.418C68.9029 516.06 66.9787 515.322 65.284 513.862C63.5007 512.327 62.1202 509.934 62.0098 507.553C61.8963 505.085 62.7702 503.095 64.4729 501.352C65.9436 499.847 67.3677 499.173 69.4296 498.831C77.7886 497.445 87.4347 498.295 95.941 498.275C113.969 498.316 131.996 498.224 150.022 498Z" fill="#F7DC77"/>
<path d="M287.725 80.2259C301.484 80.3201 315.243 80.2446 329 80C323.392 88.5308 316.144 96.4133 309.642 104.258L305.356 108.732L273 109C276.612 99.2708 282.525 89.1914 287.725 80.2259Z" fill="#1A6D70"/>
<path d="M176 80.0173C188.694 80.1005 201.389 80.095 214.084 80C219.528 88.9441 224.396 98.2761 229 107.643C217.442 108.291 205.68 107.867 194.097 107.827C188.424 98.342 181.401 89.7205 176 80.0173Z" fill="#F7DC77"/>
</g>
<defs>
<linearGradient id="paint0_linear_favicon" x1="224.273" y1="282.512" x2="40.1641" y2="235.64" gradientUnits="userSpaceOnUse">
<stop stop-color="#D1B766"/>
<stop offset="1" stop-color="#FFF483"/>
</linearGradient>
<clipPath id="clip0_favicon">
<rect width="422" height="665" fill="white"/>
</clipPath>
</defs>
</svg>
